<svg width="39" height="39" viewBox="0 0 39 39" fill="none" xmlns="http://www.w3.org/2000/svg">
<path d="M0.532798 34.6326L6.56372 28.5917C-4.0507 11.8382 12.0586 -1.47868 22.2441 0.132245L38.9967 17.0468C36.9596 38.7404 17.1514 38.2571 10.3163 32.619C8.75272 34.2299 5.41114 37.6665 4.55341 38.5256C3.69568 39.3848 2.76647 38.8836 2.40908 38.5256L0.532798 36.6462C-0.43215 35.8945 0.130736 34.9906 0.532798 34.6326Z" fill="#018FFF"/>
<path d="M10.7153 25.3927C3.10297 13.5793 15.4061 4.31657 21.9731 5.79324V13.1766C21.9731 15.6466 24.3855 16.7116 25.5916 16.9354H33.4989C33.3916 21.2311 31.6672 24.3635 30.8184 25.3927C22.7772 35.1655 13.397 29.5542 10.7153 25.3927Z" fill="white"/>
<path d="M21.9794 13.5585L22.2474 0.134277L39 16.9146C35.5601 16.9594 28.0639 17.022 25.5979 16.9146C23.1319 16.8072 22.1581 14.6325 21.9794 13.5585Z" fill="#B0DCFF"/>
<rect opacity="0.66" x="12.0619" y="10.2024" width="8.30928" height="2.41637" rx="1.20818" fill="#018FFF"/>
<rect opacity="0.66" x="12.0619" y="14.7667" width="8.30928" height="2.41637" rx="1.20818" fill="#018FFF"/>
<rect opacity="0.66" x="12.0619" y="19.3309" width="16.8866" height="2.41637" rx="1.20818" fill="#018FFF"/>
<rect opacity="0.66" x="12.0619" y="23.8951" width="16.8866" height="2.41637" rx="1.20818" fill="#018FFF"/>
</svg>
