<svg width="22" height="30" viewBox="0 0 22 30" fill="none" xmlns="http://www.w3.org/2000/svg">
<path d="M17.3333 16C18.3942 16 19.4116 16.4214 20.1618 17.1716C20.9119 17.9217 21.3333 18.9391 21.3333 20C21.3333 22.976 20.1093 25.36 18.1013 26.9733C16.3707 28.36 14.128 29.128 11.712 29.296C11.0159 29.3416 10.3175 29.3416 9.62133 29.296C7.208 29.128 4.96267 28.3627 3.232 26.976C1.224 25.36 0 22.9733 0 20C0.000116573 19.0099 0.367468 18.0549 1.03098 17.32C1.6945 16.5851 2.60702 16.1223 3.592 16.0213L4 16H17.3333ZM10.6667 0C11.0203 0 11.3594 0.140476 11.6095 0.390524C11.8595 0.640573 12 0.979711 12 1.33333V2.66667H14.6667C15.7275 2.66667 16.7449 3.08809 17.4951 3.83824C18.2452 4.58839 18.6667 5.6058 18.6667 6.66667V9.33333C18.6667 10.3942 18.2452 11.4116 17.4951 12.1618C16.7449 12.9119 15.7275 13.3333 14.6667 13.3333H6.66667C5.6058 13.3333 4.58839 12.9119 3.83824 12.1618C3.08809 11.4116 2.66667 10.3942 2.66667 9.33333V6.66667C2.66667 5.6058 3.08809 4.58839 3.83824 3.83824C4.58839 3.08809 5.6058 2.66667 6.66667 2.66667H9.33333V1.33333C9.33333 0.979711 9.47381 0.640573 9.72386 0.390524C9.97391 0.140476 10.313 0 10.6667 0Z" fill="white"/>
</svg>
