<svg width="22" height="27" viewBox="0 0 22 27" fill="none" xmlns="http://www.w3.org/2000/svg">
<path fill-rule="evenodd" clip-rule="evenodd" d="M12.0007 0C13.0615 0 14.0789 0.421427 14.8291 1.17157C15.5792 1.92172 16.0007 2.93913 16.0007 4V22.6667C16.0007 23.7275 15.5792 24.7449 14.8291 25.4951C14.0789 26.2452 13.0615 26.6667 12.0007 26.6667H4.00065C2.93979 26.6667 1.92237 26.2452 1.17222 25.4951C0.422079 24.7449 0.000652313 23.7275 0.000652313 22.6667V4C0.000652313 2.93913 0.422079 1.92172 1.17222 1.17157C1.92237 0.421427 2.93979 0 4.00065 0H12.0007ZM10.2767 8.39067C10.0266 8.14071 9.68754 8.00028 9.33399 8.00028C8.98043 8.00028 8.64136 8.14071 8.39132 8.39067L4.39132 12.3907C4.14136 12.6407 4.00094 12.9798 4.00094 13.3333C4.00094 13.6869 4.14136 14.026 4.39132 14.276L8.39132 18.276C8.64279 18.5189 8.97959 18.6533 9.32919 18.6502C9.67878 18.6472 10.0132 18.507 10.2604 18.2598C10.5076 18.0125 10.6478 17.6781 10.6509 17.3285C10.6539 16.9789 10.5195 16.6421 10.2767 16.3907L8.55265 14.6667H20.0007C20.3543 14.6667 20.6934 14.5262 20.9435 14.2761C21.1935 14.0261 21.334 13.687 21.334 13.3333C21.334 12.9797 21.1935 12.6406 20.9435 12.3905C20.6934 12.1405 20.3543 12 20.0007 12H8.55265L10.2767 10.276C10.5266 10.026 10.667 9.68688 10.667 9.33333C10.667 8.97978 10.5266 8.6407 10.2767 8.39067Z" fill="white"/>
</svg>
