<svg width="22" height="28" viewBox="0 0 22 28" fill="none" xmlns="http://www.w3.org/2000/svg">
<path d="M2.66667 28C1.93333 28 1.30578 27.7391 0.784 27.2173C0.262222 26.6956 0.000888889 26.0676 0 25.3333V12C0 11.2667 0.261333 10.6391 0.784 10.1173C1.30667 9.59556 1.93422 9.33422 2.66667 9.33333H4V6.66667C4 4.82222 4.65022 3.25022 5.95067 1.95067C7.25111 0.651112 8.82311 0.000889799 10.6667 9.10125e-07C12.5102 -0.000887979 14.0827 0.649334 15.384 1.95067C16.6853 3.252 17.3351 4.824 17.3333 6.66667V9.33333H18.6667C19.4 9.33333 20.028 9.59467 20.5507 10.1173C21.0733 10.64 21.3342 11.2676 21.3333 12V25.3333C21.3333 26.0667 21.0724 26.6947 20.5507 27.2173C20.0289 27.74 19.4009 28.0009 18.6667 28H2.66667ZM10.6667 21.3333C11.4 21.3333 12.028 21.0724 12.5507 20.5507C13.0733 20.0289 13.3342 19.4009 13.3333 18.6667C13.3324 17.9324 13.0716 17.3049 12.5507 16.784C12.0298 16.2631 11.4018 16.0018 10.6667 16C9.93156 15.9982 9.304 16.2596 8.784 16.784C8.264 17.3084 8.00267 17.936 8 18.6667C7.99733 19.3973 8.25867 20.0253 8.784 20.5507C9.30933 21.076 9.93689 21.3369 10.6667 21.3333ZM6.66667 9.33333H14.6667V6.66667C14.6667 5.55556 14.2778 4.61111 13.5 3.83333C12.7222 3.05556 11.7778 2.66667 10.6667 2.66667C9.55556 2.66667 8.61111 3.05556 7.83333 3.83333C7.05556 4.61111 6.66667 5.55556 6.66667 6.66667V9.33333Z" fill="white"/>
</svg>
