<svg width="22" height="27" viewBox="0 0 22 27" fill="none" xmlns="http://www.w3.org/2000/svg">
<path fill-rule="evenodd" clip-rule="evenodd" d="M9.33333 0C8.27247 0 7.25505 0.421427 6.50491 1.17157C5.75476 1.92172 5.33333 2.93913 5.33333 4V22.6667C5.33333 23.7275 5.75476 24.7449 6.50491 25.4951C7.25505 26.2452 8.27247 26.6667 9.33333 26.6667H17.3333C18.3942 26.6667 19.4116 26.2452 20.1618 25.4951C20.9119 24.7449 21.3333 23.7275 21.3333 22.6667V4C21.3333 2.93913 20.9119 1.92172 20.1618 1.17157C19.4116 0.421427 18.3942 0 17.3333 0H9.33333ZM11.0573 8.39067C11.3074 8.14071 11.6464 8.00028 12 8.00028C12.3536 8.00028 12.6926 8.14071 12.9427 8.39067L16.9427 12.3907C17.1926 12.6407 17.333 12.9798 17.333 13.3333C17.333 13.6869 17.1926 14.026 16.9427 14.276L12.9427 18.276C12.6912 18.5189 12.3544 18.6533 12.0048 18.6502C11.6552 18.6472 11.3208 18.507 11.0736 18.2598C10.8264 18.0125 10.6861 17.6781 10.6831 17.3285C10.6801 16.9789 10.8145 16.6421 11.0573 16.3907L12.7813 14.6667H1.33333C0.979711 14.6667 0.640573 14.5262 0.390525 14.2761C0.140476 14.0261 0 13.687 0 13.3333C0 12.9797 0.140476 12.6406 0.390525 12.3905C0.640573 12.1405 0.979711 12 1.33333 12H12.7813L11.0573 10.276C10.8074 10.026 10.667 9.68688 10.667 9.33333C10.667 8.97978 10.8074 8.6407 11.0573 8.39067Z" fill="white"/>
</svg>
