<svg width="27" height="27" viewBox="0 0 27 27" fill="none" xmlns="http://www.w3.org/2000/svg">
<path fill-rule="evenodd" clip-rule="evenodd" d="M15.9787 0.722667C16.0947 0.948 16.124 1.23733 16.1813 1.816C16.2907 2.90933 16.3453 3.456 16.5747 3.75733C16.7176 3.94443 16.9074 4.09036 17.125 4.18029C17.3426 4.27022 17.58 4.30094 17.8133 4.26933C18.1867 4.22 18.6133 3.872 19.464 3.176C19.9133 2.80667 20.1387 2.62267 20.38 2.54533C20.6874 2.44712 21.0199 2.4637 21.316 2.592C21.5493 2.69333 21.756 2.89867 22.1653 3.30933L23.3573 4.50133C23.768 4.912 23.9733 5.11733 24.0747 5.35067C24.203 5.64674 24.2195 5.9793 24.1213 6.28667C24.044 6.528 23.86 6.75333 23.492 7.20267C22.7947 8.05467 22.4467 8.48 22.396 8.85467C22.3648 9.08786 22.3958 9.32516 22.486 9.54248C22.5762 9.7598 22.7222 9.94938 22.9093 10.092C23.2093 10.3213 23.7573 10.376 24.852 10.4853C25.4293 10.5427 25.7187 10.572 25.9453 10.688C26.2313 10.8363 26.4539 11.083 26.572 11.3827C26.6667 11.6187 26.6667 11.9093 26.6667 12.4907V14.176C26.6667 14.7573 26.6667 15.048 26.5733 15.2827C26.4548 15.5833 26.2312 15.8306 25.944 15.9787C25.7187 16.0947 25.4293 16.124 24.8507 16.1813C23.7573 16.2907 23.2107 16.3453 22.9093 16.5747C22.7222 16.7176 22.5763 16.9074 22.4864 17.125C22.3964 17.3426 22.3657 17.58 22.3973 17.8133C22.448 18.1867 22.796 18.6133 23.492 19.464C23.86 19.9133 24.044 20.1373 24.1213 20.38C24.2195 20.6874 24.203 21.0199 24.0747 21.316C23.9733 21.5493 23.768 21.7547 23.3573 22.1653L22.1653 23.356C21.7547 23.768 21.5493 23.9733 21.316 24.0733C21.0199 24.2016 20.6874 24.2182 20.38 24.12C20.1387 24.0427 19.9133 23.8587 19.464 23.4907C18.612 22.7947 18.1867 22.4467 17.8133 22.3973C17.58 22.3657 17.3426 22.3964 17.125 22.4864C16.9074 22.5763 16.7176 22.7222 16.5747 22.9093C16.3453 23.2093 16.2907 23.756 16.1813 24.8507C16.124 25.4293 16.0947 25.7187 15.9787 25.944C15.8309 26.2309 15.5841 26.4545 15.284 26.5733C15.048 26.6667 14.7573 26.6667 14.176 26.6667H12.4907C11.9093 26.6667 11.6187 26.6667 11.384 26.5733C11.0834 26.4548 10.8361 26.2312 10.688 25.944C10.572 25.7187 10.5427 25.4293 10.4853 24.8507C10.376 23.7573 10.3213 23.2107 10.092 22.9093C9.94923 22.7224 9.75958 22.5767 9.54227 22.4867C9.32496 22.3968 9.08774 22.366 8.85467 22.3973C8.48 22.4467 8.05467 22.7947 7.20267 23.4907C6.75333 23.86 6.528 24.044 6.28667 24.1213C5.9793 24.2195 5.64674 24.203 5.35067 24.0747C5.11733 23.9733 4.91067 23.768 4.50133 23.3573L3.30933 22.1653C2.89867 21.7547 2.69333 21.5493 2.592 21.316C2.4637 21.0199 2.44712 20.6874 2.54533 20.38C2.62267 20.1387 2.80667 19.9133 3.17467 19.464C3.872 18.612 4.22 18.1867 4.26933 17.812C4.30069 17.5789 4.26985 17.3417 4.17993 17.1244C4.09001 16.9071 3.94421 16.7174 3.75733 16.5747C3.45733 16.3453 2.90933 16.2907 1.81467 16.1813C1.23733 16.124 0.948 16.0947 0.721333 15.9787C0.435397 15.8304 0.212795 15.5836 0.0946668 15.284C1.29143e-07 15.048 0 14.7573 0 14.176V12.4907C0 11.9093 -8.9407e-08 11.6187 0.0933332 11.384C0.211849 11.0834 0.435487 10.8361 0.722667 10.688C0.948 10.572 1.23733 10.5427 1.816 10.4853C2.90933 10.376 3.45733 10.3213 3.75733 10.092C3.94446 9.94938 4.09051 9.7598 4.18067 9.54248C4.27083 9.32516 4.30188 9.08786 4.27067 8.85467C4.22 8.48 3.87067 8.05467 3.17467 7.20133C2.80667 6.752 2.62267 6.528 2.54533 6.28533C2.44712 5.97797 2.4637 5.64541 2.592 5.34933C2.69333 5.11733 2.89867 4.91067 3.30933 4.5L4.50133 3.30933C4.912 2.89867 5.11733 2.692 5.35067 2.592C5.64674 2.4637 5.9793 2.44712 6.28667 2.54533C6.528 2.62267 6.75333 2.80667 7.20267 3.17467C8.05467 3.87067 8.48 4.21867 8.85333 4.26933C9.08695 4.30104 9.3248 4.27023 9.54263 4.18005C9.76046 4.08987 9.95048 3.94355 10.0933 3.756C10.32 3.456 10.376 2.90933 10.4853 1.81467C10.5427 1.23733 10.572 0.948 10.688 0.721333C10.836 0.434895 11.0828 0.211791 11.3827 0.0933332C11.6187 -8.9407e-08 11.9093 0 12.4907 0H14.176C14.7573 0 15.048 -8.9407e-08 15.2827 0.0933332C15.5833 0.211849 15.8306 0.435487 15.9787 0.722667ZM13.3333 18.6667C14.7478 18.6667 16.1044 18.1048 17.1046 17.1046C18.1048 16.1044 18.6667 14.7478 18.6667 13.3333C18.6667 11.9188 18.1048 10.5623 17.1046 9.5621C16.1044 8.5619 14.7478 8 13.3333 8C11.9188 8 10.5623 8.5619 9.5621 9.5621C8.5619 10.5623 8 11.9188 8 13.3333C8 14.7478 8.5619 16.1044 9.5621 17.1046C10.5623 18.1048 11.9188 18.6667 13.3333 18.6667Z" fill="white"/>
</svg>
