<svg width="186" height="186" viewBox="0 0 186 186" fill="none" xmlns="http://www.w3.org/2000/svg">
<g clip-path="url(#clip0_1067_15019)">
<rect width="186" height="186" rx="93" fill="#F8F3F2"/>
<path d="M56.1493 118.018C70.049 125.27 78.56 121.04 81.078 118.018V111.219C70.8038 104.874 67.9844 96.9921 67.8589 93.8445L68.6143 63.6278C82.514 70.8798 98.0756 61.3616 104.119 55.696C105.932 62.0415 111.421 67.9085 113.939 70.0489C109.105 71.2576 108.148 83.6464 108.274 89.6897C109.155 91.8301 110.842 98.6037 110.54 108.575C110.238 118.547 116.961 120.284 120.36 119.906C123.886 119.277 132.22 117.036 137.357 113.108C142.494 109.179 135.217 95.6072 130.936 89.312C131.818 90.3192 134.562 92.3337 138.49 92.3337C142.419 92.3337 140.883 90.5711 139.624 89.6897C132.976 88.4811 131.062 85.6608 130.936 84.4018C128.821 75.3368 123.256 67.279 120.738 64.3833C118.623 55.6204 109.281 47.6382 104.874 44.7424C100.72 43.1057 91.3524 40.6632 87.1221 43.987C82.8917 47.3108 79.8197 46.3791 78.8125 45.4978C78.3089 41.8466 74.8088 35.4508 64.8373 39.0768C54.8658 42.7028 58.4162 53.4297 61.4379 58.3399C63.5782 60.2284 66.4236 64.8365 60.6825 68.1603C54.9413 71.4842 54.0096 87.1717 54.2614 94.5999L47.0849 101.399C44.6676 105.025 46.8331 104.924 48.2181 104.42L54.2614 98.7547C53.3549 101.474 52.876 102.658 52.7499 102.91C48.8217 111.068 53.3794 116.381 56.1493 118.018Z" fill="#72B6DF"/>
<path d="M81.0796 111.275C81.684 126.384 75.7917 127.083 72.3923 128.216C73.5254 159.566 116.962 167.498 120.739 127.083C118.347 126.327 113.94 123.532 115.451 118.396C113.814 118.144 110.616 116.205 110.919 110.464C111.221 104.723 111.045 98.5029 110.919 96.1108C108.904 92.7114 107.444 83.5517 110.163 78.4148C112.883 73.278 112.933 71.6161 113.563 70.8606C110.919 68.9721 105.404 63.2501 104.498 55.696C98.706 60.2285 84.8567 68.6891 75.7917 66.2718C74.155 65.8941 70.4282 64.761 68.6152 63.2501V94.2222C68.7411 97.9993 71.1081 106.139 81.0796 111.275Z" fill="#EBA27B"/>
<path d="M85.6124 79.1139C86.116 82.0097 86.5189 88.1789 84.1016 89.6897H90.5226" stroke="black" stroke-width="2" stroke-linecap="round" stroke-linejoin="round"/>
<path d="M102.986 106.309C97.4464 110.338 84.1763 116.054 75.4134 106.687C72.6436 104.798 67.2549 98.9814 67.8593 90.8229V63.2501M67.8593 63.2501C65.8449 61.8652 61.4386 58.491 59.9277 56.0737M67.8593 63.2501C72.6437 65.6423 84.2522 68.9913 92.4107 63.2501C94.2992 62.3688 99.285 59.5486 104.12 55.3183C105.379 59.599 109.03 67.0836 113.185 70.1052" stroke="black" stroke-width="2" stroke-linecap="round"/>
<path d="M65.9707 76.0923C66.6002 74.4555 68.7657 71.1821 72.3917 71.1821H79.1905C80.0673 71.3073 81.3429 71.8501 82.3292 73.0706H89.3886C90.8995 72.3152 94.6766 70.9554 97.6982 71.5598C101.475 72.3152 101.853 72.3152 104.497 74.5814C106.612 76.3944 104.623 80.373 103.364 82.1356C101.853 84.1501 97.3205 87.2725 91.2772 83.6465C90.0182 81.7579 87.8778 76.9988 89.3886 73.0706H82.3292C83.3256 74.3037 84.0267 76.2287 83.723 79.1139C83.1187 84.8551 77.4279 85.7868 74.658 85.535C71.7622 85.7868 65.9707 84.2508 65.9707 76.0923Z" fill="black"/>
<path d="M80.7031 75.7146C82.0881 73.9519 86.0666 71.4087 90.9013 75.3368" stroke="black" stroke-width="3"/>
<path d="M87.123 98.7547C89.8929 99.5102 95.9614 99.8123 98.0766 94.9777" stroke="black" stroke-width="2" stroke-linecap="round"/>
<path d="M57.6602 178.074C70.1245 140.303 64.7107 137.086 65.9697 130.916L72.3908 128.216C74.506 143.627 83.848 151.256 88.2546 153.145C91.528 154.656 100.417 156.242 109.784 150.501C119.151 144.76 120.989 132.749 120.737 127.461L128.669 130.105C128.669 148.99 132.698 168.001 135.468 174.674C106.158 193.409 71.3836 184.746 57.6602 178.074Z" fill="#59AC58"/>
<path d="M136.602 174.674C130.256 165.609 128.67 141.114 128.67 130.161L140.001 133.56C152.466 134.693 156.998 149.424 160.02 152.012C160.322 155.94 144.534 168.757 136.602 174.674Z" fill="#EAA37A"/>
<path d="M51.6177 135.449C43.5092 138.866 38.0202 153.271 35.7539 160.699C39.6821 165.534 51.24 173.793 56.5279 177.318C61.6647 169.764 67.8591 143.758 65.9706 130.916C65.2152 131.168 59.5495 132.106 51.6177 135.449Z" fill="#EBA27B"/>
<path d="M35 159.566L42.1765 144.457C43.5614 141.184 48.8241 134.184 58.7956 132.371L72.7709 127.838C73.4004 137.029 79.0408 155.26 96.5665 154.656C114.092 154.051 119.733 139.547 120.362 132.371V127.083L143.402 133.882C145.92 134.259 152.09 137.13 156.622 145.591L160.399 152.012" stroke="black" stroke-width="2" stroke-linecap="round" stroke-linejoin="round"/>
<path d="M57.6602 177.318L60.3041 167.875" stroke="black" stroke-width="2" stroke-linecap="round" stroke-linejoin="round"/>
<path d="M135.849 174.296L133.961 168.253" stroke="black" stroke-width="2" stroke-linecap="round" stroke-linejoin="round"/>
<path d="M147.178 166.365C145.415 165.987 141.89 164.854 141.89 163.343C141.89 161.454 141.89 159.944 144.156 159.944C145.969 159.944 148.437 159.44 149.444 159.188C150.325 157.551 151.181 154.278 147.555 154.278C143.929 154.278 140.253 154.278 138.868 154.278C137.861 153.019 136.828 150.425 140.757 150.123C144.685 149.821 146.674 149.997 147.178 150.123C148.437 149.494 150.2 147.857 147.178 146.346C143.4 144.457 141.89 147.101 141.89 139.17" stroke="black" stroke-width="2" stroke-linecap="round" stroke-linejoin="round"/>
</g>
<rect x="2.5" y="2.5" width="181" height="181" rx="90.5" stroke="#018FFF" stroke-width="5"/>
<defs>
<clipPath id="clip0_1067_15019">
<rect width="186" height="186" rx="93" fill="white"/>
</clipPath>
</defs>
</svg>
