<svg width="75" height="75" viewBox="0 0 75 75" fill="none" xmlns="http://www.w3.org/2000/svg">
<rect width="75" height="75" rx="20" fill="#018FFF"/>
<path d="M49.7497 43.625H45.6663V47.7083H49.7497M49.7497 35.4583H45.6663V39.5417H49.7497M53.833 51.7917H37.4997V47.7083H41.583V43.625H37.4997V39.5417H41.583V35.4583H37.4997V31.375H53.833M33.4163 27.2917H29.333V23.2083H33.4163M33.4163 35.4583H29.333V31.375H33.4163M33.4163 43.625H29.333V39.5417H33.4163M33.4163 51.7917H29.333V47.7083H33.4163M25.2497 27.2917H21.1663V23.2083H25.2497M25.2497 35.4583H21.1663V31.375H25.2497M25.2497 43.625H21.1663V39.5417H25.2497M25.2497 51.7917H21.1663V47.7083H25.2497M37.4997 27.2917V19.125H17.083V55.875H57.9163V27.2917H37.4997Z" fill="white"/>
</svg>
