<svg width="75" height="75" viewBox="0 0 75 75" fill="none" xmlns="http://www.w3.org/2000/svg">
<rect width="75" height="75" rx="20" fill="#018FFF"/>
<path d="M37.9997 37C35.433 37 33.2358 36.0861 31.408 34.2583C29.5802 32.4306 28.6663 30.2333 28.6663 27.6667C28.6663 25.1 29.5802 22.9028 31.408 21.075C33.2358 19.2472 35.433 18.3333 37.9997 18.3333C40.5663 18.3333 42.7636 19.2472 44.5913 21.075C46.4191 22.9028 47.333 25.1 47.333 27.6667C47.333 30.2333 46.4191 32.4306 44.5913 34.2583C42.7636 36.0861 40.5663 37 37.9997 37ZM19.333 55.6667V49.1333C19.333 47.8111 19.6737 46.5962 20.355 45.4887C21.0363 44.3811 21.9401 43.5349 23.0663 42.95C25.4775 41.7445 27.9275 40.8407 30.4163 40.2387C32.9052 39.6367 35.433 39.3349 37.9997 39.3333C40.5663 39.3318 43.0941 39.6336 45.583 40.2387C48.0719 40.8438 50.5219 41.7476 52.933 42.95C54.0608 43.5333 54.9653 44.3796 55.6467 45.4887C56.328 46.5978 56.6679 47.8127 56.6663 49.1333V55.6667H19.333ZM23.9997 51H51.9997V49.1333C51.9997 48.7056 51.8931 48.3167 51.68 47.9667C51.4669 47.6167 51.1846 47.3445 50.833 47.15C48.733 46.1 46.6136 45.3129 44.4747 44.7887C42.3358 44.2645 40.1775 44.0016 37.9997 44C35.8219 43.9985 33.6636 44.2613 31.5247 44.7887C29.3858 45.316 27.2663 46.1031 25.1663 47.15C24.8163 47.3445 24.534 47.6167 24.3193 47.9667C24.1047 48.3167 23.9981 48.7056 23.9997 49.1333V51ZM37.9997 32.3333C39.283 32.3333 40.382 31.8768 41.2967 30.9637C42.2113 30.0506 42.6679 28.9516 42.6663 27.6667C42.6648 26.3818 42.2082 25.2836 41.2967 24.372C40.3851 23.4605 39.2861 23.0031 37.9997 23C36.7132 22.9969 35.615 23.4542 34.705 24.372C33.795 25.2898 33.3377 26.388 33.333 27.6667C33.3283 28.9453 33.7857 30.0443 34.705 30.9637C35.6243 31.883 36.7226 32.3396 37.9997 32.3333Z" fill="white"/>
</svg>
